<svg width="11" height="13" viewBox="0 0 11 13" fill="none" xmlns="http://www.w3.org/2000/svg">
<path d="M8.4974 6.237C8.78343 6.73243 8.8576 7.24723 8.71991 7.78141C8.58222 8.31559 8.28622 8.79103 7.83192 9.20774L8.17739 9.80611C8.27397 9.9734 8.29593 10.1452 8.24327 10.3214C8.20076 10.5004 8.09586 10.6382 7.92857 10.7347C7.76771 10.8276 7.59917 10.8477 7.42292 10.795C7.25039 10.7488 7.11583 10.6421 7.01925 10.4748L6.70721 9.9343C6.34119 10.1027 5.97998 10.2126 5.62358 10.264C5.27361 10.3116 4.89665 10.2976 4.49268 10.222C4.22981 10.1679 4.04451 10.0475 3.93678 9.86093C3.85134 9.71295 3.83173 9.55269 3.87796 9.38016C3.92048 9.20119 4.01895 9.06713 4.17337 8.97798C4.29561 8.9074 4.42728 8.88285 4.56837 8.90434C4.8607 8.95004 5.1248 8.96914 5.36068 8.96164C5.59284 8.9477 5.82437 8.89553 6.05527 8.80511L4.96871 6.92313C3.538 7.43173 2.51804 7.15843 1.90882 6.10323C1.6005 5.5692 1.52805 5.02766 1.69148 4.47863C1.85119 3.92316 2.19508 3.44151 2.72314 3.03369L2.53926 2.7152C2.44268 2.54792 2.4175 2.37801 2.46373 2.20547C2.51268 2.02279 2.6208 1.88316 2.78808 1.78658C2.94894 1.69371 3.11749 1.67361 3.29373 1.72627C3.46626 1.7725 3.60082 1.87926 3.69741 2.04655L3.90357 2.40364C4.5062 2.1844 5.07174 2.12383 5.60021 2.22192C5.87224 2.26218 6.06398 2.37882 6.17542 2.57184C6.26086 2.71983 6.28232 2.8833 6.23981 3.06227C6.19358 3.2348 6.09647 3.36378 5.94849 3.44922C5.85197 3.50494 5.7484 3.52614 5.63775 3.51281C5.35186 3.4634 4.99854 3.48294 4.5778 3.57144L5.60864 5.35691C6.31819 5.14456 6.8981 5.10143 7.34837 5.22752C7.79492 5.34717 8.17793 5.68367 8.4974 6.237ZM3.0198 5.39746C3.14239 5.60979 3.31024 5.74451 3.52337 5.80161C3.73278 5.85229 3.99168 5.84008 4.30005 5.76498L3.37508 4.16288C3.141 4.36666 2.9954 4.57511 2.9383 4.78824C2.88119 5.00137 2.90836 5.20444 3.0198 5.39746ZM7.16327 8.04959C7.30528 7.86466 7.3989 7.67763 7.44414 7.48852C7.48566 7.29297 7.4637 7.1212 7.37826 6.97322C7.27424 6.79306 7.13362 6.66836 6.95638 6.59911C6.77542 6.52343 6.55278 6.50185 6.28844 6.53436L7.16327 8.04959Z" fill="#404040"/>
</svg>
